# Tiled2Unity generated file. Do not modify by hand.
# Wavefront file for 'map_mesh_0003.obj'

# Vertices (Count = 12)
v -89 -25 0
v -90 -25 0
v -90 -24 0
v -89 -24 0
v -88 -25 0
v -89 -25 0
v -89 -24 0
v -88 -24 0
v -103 -33 0
v -104 -33 0
v -104 -32 0
v -103 -32 0

# Texture cooridinates (Count = 12)
vt 0.9307851 0.5171102
vt 0.947314 0.5171102
vt 0.947314 0.5475285
vt 0.9307851 0.5475285
vt 0.9307851 0.5817491
vt 0.947314 0.5817491
vt 0.947314 0.6121673
vt 0.9307851 0.6121673
vt 0.1229339 0.9372624
vt 0.1394628 0.9372624
vt 0.1394628 0.9676806
vt 0.1229339 0.9676806

# Normal
vn 0 0 -1

# Mesh description
g map_mesh_0003

# Faces
f 1/1/1 2/2/1 3/3/1 4/4/1
f 5/5/1 6/6/1 7/7/1 8/8/1
f 9/9/1 10/10/1 11/11/1 12/12/1

