# Tiled2Unity generated file. Do not modify by hand.
# Wavefront file for 'map_mesh_0004.obj'

# Vertices (Count = 740)
v -72 -23 0
v -73 -23 0
v -73 -22 0
v -72 -22 0
v -71 -23 0
v -72 -23 0
v -72 -22 0
v -71 -22 0
v -70 -23 0
v -71 -23 0
v -71 -22 0
v -70 -22 0
v -87 -24 0
v -88 -24 0
v -88 -23 0
v -87 -23 0
v -86 -24 0
v -87 -24 0
v -87 -23 0
v -86 -23 0
v -85 -24 0
v -86 -24 0
v -86 -23 0
v -85 -23 0
v -84 -24 0
v -85 -24 0
v -85 -23 0
v -84 -23 0
v -83 -24 0
v -84 -24 0
v -84 -23 0
v -83 -23 0
v -82 -24 0
v -83 -24 0
v -83 -23 0
v -82 -23 0
v -81 -24 0
v -82 -24 0
v -82 -23 0
v -81 -23 0
v -80 -24 0
v -81 -24 0
v -81 -23 0
v -80 -23 0
v -79 -24 0
v -80 -24 0
v -80 -23 0
v -79 -23 0
v -78 -24 0
v -79 -24 0
v -79 -23 0
v -78 -23 0
v -77 -24 0
v -78 -24 0
v -78 -23 0
v -77 -23 0
v -76 -24 0
v -77 -24 0
v -77 -23 0
v -76 -23 0
v -75 -24 0
v -76 -24 0
v -76 -23 0
v -75 -23 0
v -74 -24 0
v -75 -24 0
v -75 -23 0
v -74 -23 0
v -73 -24 0
v -74 -24 0
v -74 -23 0
v -73 -23 0
v -72 -24 0
v -73 -24 0
v -73 -23 0
v -72 -23 0
v -71 -24 0
v -72 -24 0
v -72 -23 0
v -71 -23 0
v -70 -24 0
v -71 -24 0
v -71 -23 0
v -70 -23 0
v -69 -24 0
v -70 -24 0
v -70 -23 0
v -69 -23 0
v -68 -24 0
v -69 -24 0
v -69 -23 0
v -68 -23 0
v -67 -24 0
v -68 -24 0
v -68 -23 0
v -67 -23 0
v -66 -24 0
v -67 -24 0
v -67 -23 0
v -66 -23 0
v -65 -24 0
v -66 -24 0
v -66 -23 0
v -65 -23 0
v -64 -24 0
v -65 -24 0
v -65 -23 0
v -64 -23 0
v -63 -24 0
v -64 -24 0
v -64 -23 0
v -63 -23 0
v -62 -24 0
v -63 -24 0
v -63 -23 0
v -62 -23 0
v -61 -24 0
v -62 -24 0
v -62 -23 0
v -61 -23 0
v -60 -24 0
v -61 -24 0
v -61 -23 0
v -60 -23 0
v -59 -24 0
v -60 -24 0
v -60 -23 0
v -59 -23 0
v -58 -24 0
v -59 -24 0
v -59 -23 0
v -58 -23 0
v -57 -24 0
v -58 -24 0
v -58 -23 0
v -57 -23 0
v -56 -24 0
v -57 -24 0
v -57 -23 0
v -56 -23 0
v -55 -24 0
v -56 -24 0
v -56 -23 0
v -55 -23 0
v -87 -25 0
v -88 -25 0
v -88 -24 0
v -87 -24 0
v -86 -25 0
v -87 -25 0
v -87 -24 0
v -86 -24 0
v -85 -25 0
v -86 -25 0
v -86 -24 0
v -85 -24 0
v -84 -25 0
v -85 -25 0
v -85 -24 0
v -84 -24 0
v -83 -25 0
v -84 -25 0
v -84 -24 0
v -83 -24 0
v -82 -25 0
v -83 -25 0
v -83 -24 0
v -82 -24 0
v -81 -25 0
v -82 -25 0
v -82 -24 0
v -81 -24 0
v -80 -25 0
v -81 -25 0
v -81 -24 0
v -80 -24 0
v -79 -25 0
v -80 -25 0
v -80 -24 0
v -79 -24 0
v -78 -25 0
v -79 -25 0
v -79 -24 0
v -78 -24 0
v -77 -25 0
v -78 -25 0
v -78 -24 0
v -77 -24 0
v -76 -25 0
v -77 -25 0
v -77 -24 0
v -76 -24 0
v -75 -25 0
v -76 -25 0
v -76 -24 0
v -75 -24 0
v -74 -25 0
v -75 -25 0
v -75 -24 0
v -74 -24 0
v -73 -25 0
v -74 -25 0
v -74 -24 0
v -73 -24 0
v -72 -25 0
v -73 -25 0
v -73 -24 0
v -72 -24 0
v -71 -25 0
v -72 -25 0
v -72 -24 0
v -71 -24 0
v -70 -25 0
v -71 -25 0
v -71 -24 0
v -70 -24 0
v -69 -25 0
v -70 -25 0
v -70 -24 0
v -69 -24 0
v -68 -25 0
v -69 -25 0
v -69 -24 0
v -68 -24 0
v -67 -25 0
v -68 -25 0
v -68 -24 0
v -67 -24 0
v -66 -25 0
v -67 -25 0
v -67 -24 0
v -66 -24 0
v -65 -25 0
v -66 -25 0
v -66 -24 0
v -65 -24 0
v -64 -25 0
v -65 -25 0
v -65 -24 0
v -64 -24 0
v -63 -25 0
v -64 -25 0
v -64 -24 0
v -63 -24 0
v -62 -25 0
v -63 -25 0
v -63 -24 0
v -62 -24 0
v -61 -25 0
v -62 -25 0
v -62 -24 0
v -61 -24 0
v -60 -25 0
v -61 -25 0
v -61 -24 0
v -60 -24 0
v -59 -25 0
v -60 -25 0
v -60 -24 0
v -59 -24 0
v -58 -25 0
v -59 -25 0
v -59 -24 0
v -58 -24 0
v -57 -25 0
v -58 -25 0
v -58 -24 0
v -57 -24 0
v -56 -25 0
v -57 -25 0
v -57 -24 0
v -56 -24 0
v -55 -25 0
v -56 -25 0
v -56 -24 0
v -55 -24 0
v -54 -25 0
v -55 -25 0
v -55 -24 0
v -54 -24 0
v -53 -25 0
v -54 -25 0
v -54 -24 0
v -53 -24 0
v -52 -25 0
v -53 -25 0
v -53 -24 0
v -52 -24 0
v -51 -25 0
v -52 -25 0
v -52 -24 0
v -51 -24 0
v -50 -25 0
v -51 -25 0
v -51 -24 0
v -50 -24 0
v -49 -25 0
v -50 -25 0
v -50 -24 0
v -49 -24 0
v -48 -25 0
v -49 -25 0
v -49 -24 0
v -48 -24 0
v -47 -25 0
v -48 -25 0
v -48 -24 0
v -47 -24 0
v -46 -25 0
v -47 -25 0
v -47 -24 0
v -46 -24 0
v -45 -25 0
v -46 -25 0
v -46 -24 0
v -45 -24 0
v -44 -25 0
v -45 -25 0
v -45 -24 0
v -44 -24 0
v -43 -25 0
v -44 -25 0
v -44 -24 0
v -43 -24 0
v -42 -25 0
v -43 -25 0
v -43 -24 0
v -42 -24 0
v -41 -25 0
v -42 -25 0
v -42 -24 0
v -41 -24 0
v -40 -25 0
v -41 -25 0
v -41 -24 0
v -40 -24 0
v -39 -25 0
v -40 -25 0
v -40 -24 0
v -39 -24 0
v -38 -25 0
v -39 -25 0
v -39 -24 0
v -38 -24 0
v -87 -26 0
v -88 -26 0
v -88 -25 0
v -87 -25 0
v -86 -26 0
v -87 -26 0
v -87 -25 0
v -86 -25 0
v -85 -26 0
v -86 -26 0
v -86 -25 0
v -85 -25 0
v -84 -26 0
v -85 -26 0
v -85 -25 0
v -84 -25 0
v -83 -26 0
v -84 -26 0
v -84 -25 0
v -83 -25 0
v -82 -26 0
v -83 -26 0
v -83 -25 0
v -82 -25 0
v -81 -26 0
v -82 -26 0
v -82 -25 0
v -81 -25 0
v -80 -26 0
v -81 -26 0
v -81 -25 0
v -80 -25 0
v -79 -26 0
v -80 -26 0
v -80 -25 0
v -79 -25 0
v -78 -26 0
v -79 -26 0
v -79 -25 0
v -78 -25 0
v -77 -26 0
v -78 -26 0
v -78 -25 0
v -77 -25 0
v -76 -26 0
v -77 -26 0
v -77 -25 0
v -76 -25 0
v -75 -26 0
v -76 -26 0
v -76 -25 0
v -75 -25 0
v -74 -26 0
v -75 -26 0
v -75 -25 0
v -74 -25 0
v -73 -26 0
v -74 -26 0
v -74 -25 0
v -73 -25 0
v -72 -26 0
v -73 -26 0
v -73 -25 0
v -72 -25 0
v -71 -26 0
v -72 -26 0
v -72 -25 0
v -71 -25 0
v -70 -26 0
v -71 -26 0
v -71 -25 0
v -70 -25 0
v -69 -26 0
v -70 -26 0
v -70 -25 0
v -69 -25 0
v -68 -26 0
v -69 -26 0
v -69 -25 0
v -68 -25 0
v -67 -26 0
v -68 -26 0
v -68 -25 0
v -67 -25 0
v -66 -26 0
v -67 -26 0
v -67 -25 0
v -66 -25 0
v -65 -26 0
v -66 -26 0
v -66 -25 0
v -65 -25 0
v -64 -26 0
v -65 -26 0
v -65 -25 0
v -64 -25 0
v -63 -26 0
v -64 -26 0
v -64 -25 0
v -63 -25 0
v -62 -26 0
v -63 -26 0
v -63 -25 0
v -62 -25 0
v -61 -26 0
v -62 -26 0
v -62 -25 0
v -61 -25 0
v -60 -26 0
v -61 -26 0
v -61 -25 0
v -60 -25 0
v -59 -26 0
v -60 -26 0
v -60 -25 0
v -59 -25 0
v -58 -26 0
v -59 -26 0
v -59 -25 0
v -58 -25 0
v -57 -26 0
v -58 -26 0
v -58 -25 0
v -57 -25 0
v -56 -26 0
v -57 -26 0
v -57 -25 0
v -56 -25 0
v -55 -26 0
v -56 -26 0
v -56 -25 0
v -55 -25 0
v -87 -27 0
v -88 -27 0
v -88 -26 0
v -87 -26 0
v -86 -27 0
v -87 -27 0
v -87 -26 0
v -86 -26 0
v -85 -27 0
v -86 -27 0
v -86 -26 0
v -85 -26 0
v -87 -28 0
v -88 -28 0
v -88 -27 0
v -87 -27 0
v -86 -28 0
v -87 -28 0
v -87 -27 0
v -86 -27 0
v -85 -28 0
v -86 -28 0
v -86 -27 0
v -85 -27 0
v -87 -29 0
v -88 -29 0
v -88 -28 0
v -87 -28 0
v -86 -29 0
v -87 -29 0
v -87 -28 0
v -86 -28 0
v -85 -29 0
v -86 -29 0
v -86 -28 0
v -85 -28 0
v -87 -30 0
v -88 -30 0
v -88 -29 0
v -87 -29 0
v -86 -30 0
v -87 -30 0
v -87 -29 0
v -86 -29 0
v -85 -30 0
v -86 -30 0
v -86 -29 0
v -85 -29 0
v -87 -31 0
v -88 -31 0
v -88 -30 0
v -87 -30 0
v -86 -31 0
v -87 -31 0
v -87 -30 0
v -86 -30 0
v -85 -31 0
v -86 -31 0
v -86 -30 0
v -85 -30 0
v -87 -32 0
v -88 -32 0
v -88 -31 0
v -87 -31 0
v -86 -32 0
v -87 -32 0
v -87 -31 0
v -86 -31 0
v -85 -32 0
v -86 -32 0
v -86 -31 0
v -85 -31 0
v -87 -33 0
v -88 -33 0
v -88 -32 0
v -87 -32 0
v -86 -33 0
v -87 -33 0
v -87 -32 0
v -86 -32 0
v -85 -33 0
v -86 -33 0
v -86 -32 0
v -85 -32 0
v -87 -34 0
v -88 -34 0
v -88 -33 0
v -87 -33 0
v -86 -34 0
v -87 -34 0
v -87 -33 0
v -86 -33 0
v -85 -34 0
v -86 -34 0
v -86 -33 0
v -85 -33 0
v -84 -34 0
v -85 -34 0
v -85 -33 0
v -84 -33 0
v -83 -34 0
v -84 -34 0
v -84 -33 0
v -83 -33 0
v -82 -34 0
v -83 -34 0
v -83 -33 0
v -82 -33 0
v -81 -34 0
v -82 -34 0
v -82 -33 0
v -81 -33 0
v -80 -34 0
v -81 -34 0
v -81 -33 0
v -80 -33 0
v -79 -34 0
v -80 -34 0
v -80 -33 0
v -79 -33 0
v -78 -34 0
v -79 -34 0
v -79 -33 0
v -78 -33 0
v -77 -34 0
v -78 -34 0
v -78 -33 0
v -77 -33 0
v -76 -34 0
v -77 -34 0
v -77 -33 0
v -76 -33 0
v -75 -34 0
v -76 -34 0
v -76 -33 0
v -75 -33 0
v -74 -34 0
v -75 -34 0
v -75 -33 0
v -74 -33 0
v -73 -34 0
v -74 -34 0
v -74 -33 0
v -73 -33 0
v -87 -35 0
v -88 -35 0
v -88 -34 0
v -87 -34 0
v -86 -35 0
v -87 -35 0
v -87 -34 0
v -86 -34 0
v -85 -35 0
v -86 -35 0
v -86 -34 0
v -85 -34 0
v -84 -35 0
v -85 -35 0
v -85 -34 0
v -84 -34 0
v -83 -35 0
v -84 -35 0
v -84 -34 0
v -83 -34 0
v -82 -35 0
v -83 -35 0
v -83 -34 0
v -82 -34 0
v -81 -35 0
v -82 -35 0
v -82 -34 0
v -81 -34 0
v -80 -35 0
v -81 -35 0
v -81 -34 0
v -80 -34 0
v -79 -35 0
v -80 -35 0
v -80 -34 0
v -79 -34 0
v -78 -35 0
v -79 -35 0
v -79 -34 0
v -78 -34 0
v -77 -35 0
v -78 -35 0
v -78 -34 0
v -77 -34 0
v -76 -35 0
v -77 -35 0
v -77 -34 0
v -76 -34 0
v -75 -35 0
v -76 -35 0
v -76 -34 0
v -75 -34 0
v -74 -35 0
v -75 -35 0
v -75 -34 0
v -74 -34 0
v -73 -35 0
v -74 -35 0
v -74 -34 0
v -73 -34 0
v -87 -36 0
v -88 -36 0
v -88 -35 0
v -87 -35 0
v -86 -36 0
v -87 -36 0
v -87 -35 0
v -86 -35 0
v -85 -36 0
v -86 -36 0
v -86 -35 0
v -85 -35 0
v -84 -36 0
v -85 -36 0
v -85 -35 0
v -84 -35 0
v -83 -36 0
v -84 -36 0
v -84 -35 0
v -83 -35 0
v -82 -36 0
v -83 -36 0
v -83 -35 0
v -82 -35 0
v -81 -36 0
v -82 -36 0
v -82 -35 0
v -81 -35 0
v -80 -36 0
v -81 -36 0
v -81 -35 0
v -80 -35 0
v -79 -36 0
v -80 -36 0
v -80 -35 0
v -79 -35 0
v -78 -36 0
v -79 -36 0
v -79 -35 0
v -78 -35 0
v -77 -36 0
v -78 -36 0
v -78 -35 0
v -77 -35 0
v -76 -36 0
v -77 -36 0
v -77 -35 0
v -76 -35 0
v -75 -36 0
v -76 -36 0
v -76 -35 0
v -75 -35 0
v -74 -36 0
v -75 -36 0
v -75 -35 0
v -74 -35 0
v -73 -36 0
v -74 -36 0
v -74 -35 0
v -73 -35 0

# Texture cooridinates (Count = 56)
vt 0.1580579 0.6787072
vt 0.1745868 0.6787072
vt 0.1745868 0.7091255
vt 0.1580579 0.7091255
vt 0.1404959 0.6787072
vt 0.1570248 0.6787072
vt 0.1570248 0.7091255
vt 0.1404959 0.7091255
vt 0.1229339 0.6787072
vt 0.1394628 0.6787072
vt 0.1394628 0.7091255
vt 0.1229339 0.7091255
vt 0.08780992 0.6463878
vt 0.1043388 0.6463878
vt 0.1043388 0.6768061
vt 0.08780992 0.6768061
vt 0.1404959 0.6463878
vt 0.1570248 0.6463878
vt 0.1570248 0.6768061
vt 0.1404959 0.6768061
vt 0.1053719 0.6463878
vt 0.1219008 0.6463878
vt 0.1219008 0.6768061
vt 0.1053719 0.6768061
vt 0.1580579 0.6463878
vt 0.1745868 0.6463878
vt 0.1745868 0.6768061
vt 0.1580579 0.6768061
vt 0.1580579 0.7110266
vt 0.1745868 0.7110266
vt 0.1745868 0.7414448
vt 0.1580579 0.7414448
vt 0.1053719 0.5817491
vt 0.1219008 0.5817491
vt 0.1219008 0.6121673
vt 0.1053719 0.6121673
vt 0.1053719 0.6787072
vt 0.1219008 0.6787072
vt 0.1219008 0.7091255
vt 0.1053719 0.7091255
vt 0.1404959 0.6140684
vt 0.1570248 0.6140684
vt 0.1570248 0.6444867
vt 0.1404959 0.6444867
vt 0.1229339 0.6140684
vt 0.1394628 0.6140684
vt 0.1394628 0.6444867
vt 0.1229339 0.6444867
vt 0.1229339 0.6463878
vt 0.1394628 0.6463878
vt 0.1394628 0.6768061
vt 0.1229339 0.6768061
vt 0.1580579 0.6140684
vt 0.1745868 0.6140684
vt 0.1745868 0.6444867
vt 0.1580579 0.6444867

# Normal
vn 0 0 -1

# Mesh description
g map_mesh_0004

# Faces
f 1/1/1 2/2/1 3/3/1 4/4/1
f 5/5/1 6/6/1 7/7/1 8/8/1
f 9/9/1 10/10/1 11/11/1 12/12/1
f 13/1/1 14/2/1 15/3/1 16/4/1
f 17/5/1 18/6/1 19/7/1 20/8/1
f 21/5/1 22/6/1 23/7/1 24/8/1
f 25/5/1 26/6/1 27/7/1 28/8/1
f 29/5/1 30/6/1 31/7/1 32/8/1
f 33/5/1 34/6/1 35/7/1 36/8/1
f 37/5/1 38/6/1 39/7/1 40/8/1
f 41/5/1 42/6/1 43/7/1 44/8/1
f 45/5/1 46/6/1 47/7/1 48/8/1
f 49/5/1 50/6/1 51/7/1 52/8/1
f 53/5/1 54/6/1 55/7/1 56/8/1
f 57/5/1 58/6/1 59/7/1 60/8/1
f 61/5/1 62/6/1 63/7/1 64/8/1
f 65/5/1 66/6/1 67/7/1 68/8/1
f 69/5/1 70/6/1 71/7/1 72/8/1
f 73/13/1 74/14/1 75/15/1 76/16/1
f 77/17/1 78/18/1 79/19/1 80/20/1
f 81/21/1 82/22/1 83/23/1 84/24/1
f 85/5/1 86/6/1 87/7/1 88/8/1
f 89/5/1 90/6/1 91/7/1 92/8/1
f 93/5/1 94/6/1 95/7/1 96/8/1
f 97/5/1 98/6/1 99/7/1 100/8/1
f 101/5/1 102/6/1 103/7/1 104/8/1
f 105/5/1 106/6/1 107/7/1 108/8/1
f 109/5/1 110/6/1 111/7/1 112/8/1
f 113/5/1 114/6/1 115/7/1 116/8/1
f 117/5/1 118/6/1 119/7/1 120/8/1
f 121/5/1 122/6/1 123/7/1 124/8/1
f 125/5/1 126/6/1 127/7/1 128/8/1
f 129/5/1 130/6/1 131/7/1 132/8/1
f 133/5/1 134/6/1 135/7/1 136/8/1
f 137/5/1 138/6/1 139/7/1 140/8/1
f 141/9/1 142/10/1 143/11/1 144/12/1
f 145/25/1 146/26/1 147/27/1 148/28/1
f 149/17/1 150/18/1 151/19/1 152/20/1
f 153/17/1 154/18/1 155/19/1 156/20/1
f 157/17/1 158/18/1 159/19/1 160/20/1
f 161/17/1 162/18/1 163/19/1 164/20/1
f 165/17/1 166/18/1 167/19/1 168/20/1
f 169/17/1 170/18/1 171/19/1 172/20/1
f 173/17/1 174/18/1 175/19/1 176/20/1
f 177/17/1 178/18/1 179/19/1 180/20/1
f 181/17/1 182/18/1 183/19/1 184/20/1
f 185/17/1 186/18/1 187/19/1 188/20/1
f 189/17/1 190/18/1 191/19/1 192/20/1
f 193/17/1 194/18/1 195/19/1 196/20/1
f 197/17/1 198/18/1 199/19/1 200/20/1
f 201/17/1 202/18/1 203/19/1 204/20/1
f 205/17/1 206/18/1 207/19/1 208/20/1
f 209/17/1 210/18/1 211/19/1 212/20/1
f 213/17/1 214/18/1 215/19/1 216/20/1
f 217/17/1 218/18/1 219/19/1 220/20/1
f 221/17/1 222/18/1 223/19/1 224/20/1
f 225/17/1 226/18/1 227/19/1 228/20/1
f 229/17/1 230/18/1 231/19/1 232/20/1
f 233/17/1 234/18/1 235/19/1 236/20/1
f 237/17/1 238/18/1 239/19/1 240/20/1
f 241/17/1 242/18/1 243/19/1 244/20/1
f 245/17/1 246/18/1 247/19/1 248/20/1
f 249/17/1 250/18/1 251/19/1 252/20/1
f 253/17/1 254/18/1 255/19/1 256/20/1
f 257/17/1 258/18/1 259/19/1 260/20/1
f 261/17/1 262/18/1 263/19/1 264/20/1
f 265/17/1 266/18/1 267/19/1 268/20/1
f 269/17/1 270/18/1 271/19/1 272/20/1
f 273/17/1 274/18/1 275/19/1 276/20/1
f 277/29/1 278/30/1 279/31/1 280/32/1
f 281/29/1 282/30/1 283/31/1 284/32/1
f 285/29/1 286/30/1 287/31/1 288/32/1
f 289/29/1 290/30/1 291/31/1 292/32/1
f 293/29/1 294/30/1 295/31/1 296/32/1
f 297/29/1 298/30/1 299/31/1 300/32/1
f 301/29/1 302/30/1 303/31/1 304/32/1
f 305/29/1 306/30/1 307/31/1 308/32/1
f 309/29/1 310/30/1 311/31/1 312/32/1
f 313/29/1 314/30/1 315/31/1 316/32/1
f 317/29/1 318/30/1 319/31/1 320/32/1
f 321/29/1 322/30/1 323/31/1 324/32/1
f 325/29/1 326/30/1 327/31/1 328/32/1
f 329/29/1 330/30/1 331/31/1 332/32/1
f 333/29/1 334/30/1 335/31/1 336/32/1
f 337/29/1 338/30/1 339/31/1 340/32/1
f 341/33/1 342/34/1 343/35/1 344/36/1
f 345/25/1 346/26/1 347/27/1 348/28/1
f 349/17/1 350/18/1 351/19/1 352/20/1
f 353/37/1 354/38/1 355/39/1 356/40/1
f 357/41/1 358/42/1 359/43/1 360/44/1
f 361/41/1 362/42/1 363/43/1 364/44/1
f 365/41/1 366/42/1 367/43/1 368/44/1
f 369/41/1 370/42/1 371/43/1 372/44/1
f 373/41/1 374/42/1 375/43/1 376/44/1
f 377/41/1 378/42/1 379/43/1 380/44/1
f 381/41/1 382/42/1 383/43/1 384/44/1
f 385/41/1 386/42/1 387/43/1 388/44/1
f 389/41/1 390/42/1 391/43/1 392/44/1
f 393/41/1 394/42/1 395/43/1 396/44/1
f 397/41/1 398/42/1 399/43/1 400/44/1
f 401/41/1 402/42/1 403/43/1 404/44/1
f 405/41/1 406/42/1 407/43/1 408/44/1
f 409/41/1 410/42/1 411/43/1 412/44/1
f 413/41/1 414/42/1 415/43/1 416/44/1
f 417/41/1 418/42/1 419/43/1 420/44/1
f 421/41/1 422/42/1 423/43/1 424/44/1
f 425/41/1 426/42/1 427/43/1 428/44/1
f 429/41/1 430/42/1 431/43/1 432/44/1
f 433/41/1 434/42/1 435/43/1 436/44/1
f 437/41/1 438/42/1 439/43/1 440/44/1
f 441/41/1 442/42/1 443/43/1 444/44/1
f 445/41/1 446/42/1 447/43/1 448/44/1
f 449/41/1 450/42/1 451/43/1 452/44/1
f 453/41/1 454/42/1 455/43/1 456/44/1
f 457/41/1 458/42/1 459/43/1 460/44/1
f 461/41/1 462/42/1 463/43/1 464/44/1
f 465/41/1 466/42/1 467/43/1 468/44/1
f 469/41/1 470/42/1 471/43/1 472/44/1
f 473/45/1 474/46/1 475/47/1 476/48/1
f 477/25/1 478/26/1 479/27/1 480/28/1
f 481/17/1 482/18/1 483/19/1 484/20/1
f 485/49/1 486/50/1 487/51/1 488/52/1
f 489/25/1 490/26/1 491/27/1 492/28/1
f 493/17/1 494/18/1 495/19/1 496/20/1
f 497/49/1 498/50/1 499/51/1 500/52/1
f 501/25/1 502/26/1 503/27/1 504/28/1
f 505/17/1 506/18/1 507/19/1 508/20/1
f 509/49/1 510/50/1 511/51/1 512/52/1
f 513/25/1 514/26/1 515/27/1 516/28/1
f 517/17/1 518/18/1 519/19/1 520/20/1
f 521/49/1 522/50/1 523/51/1 524/52/1
f 525/25/1 526/26/1 527/27/1 528/28/1
f 529/17/1 530/18/1 531/19/1 532/20/1
f 533/49/1 534/50/1 535/51/1 536/52/1
f 537/25/1 538/26/1 539/27/1 540/28/1
f 541/17/1 542/18/1 543/19/1 544/20/1
f 545/49/1 546/50/1 547/51/1 548/52/1
f 549/25/1 550/26/1 551/27/1 552/28/1
f 553/17/1 554/18/1 555/19/1 556/20/1
f 557/49/1 558/50/1 559/51/1 560/52/1
f 561/25/1 562/26/1 563/27/1 564/28/1
f 565/17/1 566/18/1 567/19/1 568/20/1
f 569/21/1 570/22/1 571/23/1 572/24/1
f 573/5/1 574/6/1 575/7/1 576/8/1
f 577/5/1 578/6/1 579/7/1 580/8/1
f 581/5/1 582/6/1 583/7/1 584/8/1
f 585/5/1 586/6/1 587/7/1 588/8/1
f 589/5/1 590/6/1 591/7/1 592/8/1
f 593/5/1 594/6/1 595/7/1 596/8/1
f 597/5/1 598/6/1 599/7/1 600/8/1
f 601/5/1 602/6/1 603/7/1 604/8/1
f 605/5/1 606/6/1 607/7/1 608/8/1
f 609/5/1 610/6/1 611/7/1 612/8/1
f 613/5/1 614/6/1 615/7/1 616/8/1
f 617/9/1 618/10/1 619/11/1 620/12/1
f 621/25/1 622/26/1 623/27/1 624/28/1
f 625/17/1 626/18/1 627/19/1 628/20/1
f 629/17/1 630/18/1 631/19/1 632/20/1
f 633/17/1 634/18/1 635/19/1 636/20/1
f 637/17/1 638/18/1 639/19/1 640/20/1
f 641/17/1 642/18/1 643/19/1 644/20/1
f 645/17/1 646/18/1 647/19/1 648/20/1
f 649/17/1 650/18/1 651/19/1 652/20/1
f 653/17/1 654/18/1 655/19/1 656/20/1
f 657/17/1 658/18/1 659/19/1 660/20/1
f 661/17/1 662/18/1 663/19/1 664/20/1
f 665/17/1 666/18/1 667/19/1 668/20/1
f 669/17/1 670/18/1 671/19/1 672/20/1
f 673/17/1 674/18/1 675/19/1 676/20/1
f 677/49/1 678/50/1 679/51/1 680/52/1
f 681/53/1 682/54/1 683/55/1 684/56/1
f 685/41/1 686/42/1 687/43/1 688/44/1
f 689/41/1 690/42/1 691/43/1 692/44/1
f 693/41/1 694/42/1 695/43/1 696/44/1
f 697/41/1 698/42/1 699/43/1 700/44/1
f 701/41/1 702/42/1 703/43/1 704/44/1
f 705/41/1 706/42/1 707/43/1 708/44/1
f 709/41/1 710/42/1 711/43/1 712/44/1
f 713/41/1 714/42/1 715/43/1 716/44/1
f 717/41/1 718/42/1 719/43/1 720/44/1
f 721/41/1 722/42/1 723/43/1 724/44/1
f 725/41/1 726/42/1 727/43/1 728/44/1
f 729/41/1 730/42/1 731/43/1 732/44/1
f 733/41/1 734/42/1 735/43/1 736/44/1
f 737/45/1 738/46/1 739/47/1 740/48/1

